<?xml version="1.0" encoding="UTF-8" standalone="no"?>
<!DOCTYPE svg PUBLIC "-//W3C//DTD SVG 1.1//EN"
 "http://www.w3.org/Graphics/SVG/1.1/DTD/svg11.dtd">
<!-- Generated by graphviz version 2.38.0 (20140413.2041)
 -->
<!-- Title: unnamed Pages: 1 -->
<svg xmlns="http://www.w3.org/2000/svg"  width="900pt" height="500pt"  xmlns:xlink="http://www.w3.org/1999/xlink">
<script type="text/ecmascript"><![CDATA[
/**
 *  SVGPan library 1.2.2
 * ======================
 *
 * Given an unique existing element with id "viewport" (or when missing, the
 * first g-element), including the library into any SVG adds the following
 * capabilities:
 *
 *  - Mouse panning
 *  - Mouse zooming (using the wheel)
 *  - Object dragging
 *
 * You can configure the behaviour of the pan/zoom/drag with the variables
 * listed in the CONFIGURATION section of this file.
 *
 * Known issues:
 *
 *  - Zooming (while panning) on Safari has still some issues
 *
 * Releases:
 *
 * 1.2.2, Tue Aug 30 17:21:56 CEST 2011, Andrea Leofreddi
 *	- Fixed viewBox on root tag (#7)
 *	- Improved zoom speed (#2)
 *
 * 1.2.1, Mon Jul  4 00:33:18 CEST 2011, Andrea Leofreddi
 *	- Fixed a regression with mouse wheel (now working on Firefox 5)
 *	- Working with viewBox attribute (#4)
 *	- Added "use strict;" and fixed resulting warnings (#5)
 *	- Added configuration variables, dragging is disabled by default (#3)
 *
 * 1.2, Sat Mar 20 08:42:50 GMT 2010, Zeng Xiaohui
 *	Fixed a bug with browser mouse handler interaction
 *
 * 1.1, Wed Feb  3 17:39:33 GMT 2010, Zeng Xiaohui
 *	Updated the zoom code to support the mouse wheel on Safari/Chrome
 *
 * 1.0, Andrea Leofreddi
 *	First release
 *
 * This code is licensed under the following BSD license:
 *
 * Copyright 2009-2017 Andrea Leofreddi <a.leofreddi@vleo.net>. All rights reserved.
 *
 * Redistribution and use in source and binary forms, with or without modification, are
 * permitted provided that the following conditions are met:
 *
 *    1. Redistributions of source code must retain the above copyright
 *       notice, this list of conditions and the following disclaimer.
 *    2. Redistributions in binary form must reproduce the above copyright
 *       notice, this list of conditions and the following disclaimer in the
 *       documentation and/or other materials provided with the distribution.
 *    3. Neither the name of the copyright holder nor the names of its
 *       contributors may be used to endorse or promote products derived from
 *       this software without specific prior written permission.
 *
 * THIS SOFTWARE IS PROVIDED BY COPYRIGHT HOLDERS AND CONTRIBUTORS ''AS IS'' AND ANY EXPRESS
 * OR IMPLIED WARRANTIES, INCLUDING, BUT NOT LIMITED TO, THE IMPLIED WARRANTIES OF MERCHANTABILITY
 * AND FITNESS FOR A PARTICULAR PURPOSE ARE DISCLAIMED. IN NO EVENT SHALL COPYRIGHT HOLDERS OR
 * CONTRIBUTORS BE LIABLE FOR ANY DIRECT, INDIRECT, INCIDENTAL, SPECIAL, EXEMPLARY, OR
 * CONSEQUENTIAL DAMAGES (INCLUDING, BUT NOT LIMITED TO, PROCUREMENT OF SUBSTITUTE GOODS OR
 * SERVICES; LOSS OF USE, DATA, OR PROFITS; OR BUSINESS INTERRUPTION) HOWEVER CAUSED AND ON
 * ANY THEORY OF LIABILITY, WHETHER IN CONTRACT, STRICT LIABILITY, OR TORT (INCLUDING
 * NEGLIGENCE OR OTHERWISE) ARISING IN ANY WAY OUT OF THE USE OF THIS SOFTWARE, EVEN IF
 * ADVISED OF THE POSSIBILITY OF SUCH DAMAGE.
 *
 * The views and conclusions contained in the software and documentation are those of the
 * authors and should not be interpreted as representing official policies, either expressed
 * or implied, of Andrea Leofreddi.
 */

"use strict";

/// CONFIGURATION
/// ====>

var enablePan = 1; // 1 or 0: enable or disable panning (default enabled)
var enableZoom = 1; // 1 or 0: enable or disable zooming (default enabled)
var enableDrag = 0; // 1 or 0: enable or disable dragging (default disabled)
var zoomScale = 0.2; // Zoom sensitivity

/// <====
/// END OF CONFIGURATION

var root = document.documentElement;

var state = 'none', svgRoot = null, stateTarget, stateOrigin, stateTf;

setupHandlers(root);

/**
 * Register handlers
 */
function setupHandlers(root){
	setAttributes(root, {
		"onmouseup" : "handleMouseUp(evt)",
		"onmousedown" : "handleMouseDown(evt)",
		"onmousemove" : "handleMouseMove(evt)",
		//"onmouseout" : "handleMouseUp(evt)", // Decomment this to stop the pan functionality when dragging out of the SVG element
	});

	if(navigator.userAgent.toLowerCase().indexOf('webkit') >= 0)
		window.addEventListener('mousewheel', handleMouseWheel, false); // Chrome/Safari
	else
		window.addEventListener('DOMMouseScroll', handleMouseWheel, false); // Others
}

/**
 * Retrieves the root element for SVG manipulation. The element is then cached into the svgRoot global variable.
 */
function getRoot(root) {
	if(svgRoot == null) {
		var r = root.getElementById("viewport") ? root.getElementById("viewport") : root.documentElement, t = r;

		while(t != root) {
			if(t.getAttribute("viewBox")) {
				setCTM(r, t.getCTM());

				t.removeAttribute("viewBox");
			}

			t = t.parentNode;
		}

		svgRoot = r;
	}

	return svgRoot;
}

/**
 * Instance an SVGPoint object with given event coordinates.
 */
function getEventPoint(evt) {
	var p = root.createSVGPoint();

	p.x = evt.clientX;
	p.y = evt.clientY;

	return p;
}

/**
 * Sets the current transform matrix of an element.
 */
function setCTM(element, matrix) {
	var s = "matrix(" + matrix.a + "," + matrix.b + "," + matrix.c + "," + matrix.d + "," + matrix.e + "," + matrix.f + ")";

	element.setAttribute("transform", s);
}

/**
 * Dumps a matrix to a string (useful for debug).
 */
function dumpMatrix(matrix) {
	var s = "[ " + matrix.a + ", " + matrix.c + ", " + matrix.e + "\n  " + matrix.b + ", " + matrix.d + ", " + matrix.f + "\n  0, 0, 1 ]";

	return s;
}

/**
 * Sets attributes of an element.
 */
function setAttributes(element, attributes){
	for (var i in attributes)
		element.setAttributeNS(null, i, attributes[i]);
}

/**
 * Handle mouse wheel event.
 */
function handleMouseWheel(evt) {
	if(!enableZoom)
		return;

	if(evt.preventDefault)
		evt.preventDefault();

	evt.returnValue = false;

	var svgDoc = evt.target.ownerDocument;

	var delta;

	if(evt.wheelDelta)
		delta = evt.wheelDelta / 360; // Chrome/Safari
	else
		delta = evt.detail / -9; // Mozilla

	var z = Math.pow(1 + zoomScale, delta);

	var g = getRoot(svgDoc);
	
	var p = getEventPoint(evt);

	p = p.matrixTransform(g.getCTM().inverse());

	// Compute new scale matrix in current mouse position
	var k = root.createSVGMatrix().translate(p.x, p.y).scale(z).translate(-p.x, -p.y);

        setCTM(g, g.getCTM().multiply(k));

	if(typeof(stateTf) == "undefined")
		stateTf = g.getCTM().inverse();

	stateTf = stateTf.multiply(k.inverse());
}

/**
 * Handle mouse move event.
 */
function handleMouseMove(evt) {
	if(evt.preventDefault)
		evt.preventDefault();

	evt.returnValue = false;

	var svgDoc = evt.target.ownerDocument;

	var g = getRoot(svgDoc);

	if(state == 'pan' && enablePan) {
		// Pan mode
		var p = getEventPoint(evt).matrixTransform(stateTf);

		setCTM(g, stateTf.inverse().translate(p.x - stateOrigin.x, p.y - stateOrigin.y));
	} else if(state == 'drag' && enableDrag) {
		// Drag mode
		var p = getEventPoint(evt).matrixTransform(g.getCTM().inverse());

		setCTM(stateTarget, root.createSVGMatrix().translate(p.x - stateOrigin.x, p.y - stateOrigin.y).multiply(g.getCTM().inverse()).multiply(stateTarget.getCTM()));

		stateOrigin = p;
	}
}

/**
 * Handle click event.
 */
function handleMouseDown(evt) {
	if(evt.preventDefault)
		evt.preventDefault();

	evt.returnValue = false;

	var svgDoc = evt.target.ownerDocument;

	var g = getRoot(svgDoc);

	if(
		evt.target.tagName == "svg"
		|| !enableDrag // Pan anyway when drag is disabled and the user clicked on an element
	) {
		// Pan mode
		state = 'pan';

		stateTf = g.getCTM().inverse();

		stateOrigin = getEventPoint(evt).matrixTransform(stateTf);
	} else {
		// Drag mode
		state = 'drag';

		stateTarget = evt.target;

		stateTf = g.getCTM().inverse();

		stateOrigin = getEventPoint(evt).matrixTransform(stateTf);
	}
}

/**
 * Handle mouse button release event.
 */
function handleMouseUp(evt) {
	if(evt.preventDefault)
		evt.preventDefault();

	evt.returnValue = false;

	var svgDoc = evt.target.ownerDocument;

	if(state == 'pan' || state == 'drag') {
		// Quit pan mode
		state = '';
	}
}
]]></script><g id="viewport"><g id="graph0" class="graph" transform="scale(1 1) rotate(0) translate(4 642)">
<title>unnamed</title>
<polygon fill="white" stroke="none" points="-4,4 -4,-642 1197,-642 1197,4 -4,4"/>
<g id="clust1" class="cluster"><title>cluster_L</title>
<polygon fill="none" stroke="black" points="8,-552 8,-630 470,-630 470,-552 8,-552"/>
</g>
<!-- Type: inuse_space -->
<g id="node1" class="node"><title>Type: inuse_space</title>
<polygon fill="#f8f8f8" stroke="black" points="462,-622 16,-622 16,-560 462,-560 462,-622"/>
<text text-anchor="start" x="24" y="-605.2" font-family="Times New Roman,serif" font-size="16.00">Type: inuse_space</text>
<text text-anchor="start" x="24" y="-587.2" font-family="Times New Roman,serif" font-size="16.00">Time: Jul 24, 2020 at 12:26pm (IST)</text>
<text text-anchor="start" x="24" y="-569.2" font-family="Times New Roman,serif" font-size="16.00">Showing nodes accounting for 227.96MB, 100% of 227.96MB total</text>
</g>
<!-- N1 -->
<g id="node1" class="node"><title>N1</title>
<g id="a_node1"><a xlink:title="main.Recur (102.57MB)">
<polygon fill="#eddad5" stroke="#b22600" points="665.5,-635 480.5,-635 480.5,-547 665.5,-547 665.5,-635"/>
<text text-anchor="middle" x="573" y="-616.6" font-family="Times New Roman,serif" font-size="18.00">main</text>
<text text-anchor="middle" x="573" y="-596.6" font-family="Times New Roman,serif" font-size="18.00">Recur</text>
<text text-anchor="middle" x="573" y="-576.6" font-family="Times New Roman,serif" font-size="18.00">40.06MB (17.57%)</text>
<text text-anchor="middle" x="573" y="-556.6" font-family="Times New Roman,serif" font-size="18.00">of 102.57MB (45.00%)</text>
</a>
</g>
</g>
<!-- NN1_0 -->
<g id="NN1_0" class="node"><title>NN1_0</title>
<g id="a_NN1_0"><a xlink:title="34.52MB">
<polygon fill="#f8f8f8" stroke="black" points="521,-496 471,-496 467,-492 467,-460 517,-460 521,-464 521,-496"/>
<polyline fill="none" stroke="black" points="517,-492 467,-492 "/>
<polyline fill="none" stroke="black" points="517,-492 517,-460 "/>
<polyline fill="none" stroke="black" points="517,-492 521,-496 "/>
<text text-anchor="middle" x="494" y="-476.1" font-family="Times New Roman,serif" font-size="8.00">512B</text>
</a>
</g>
</g>
<!-- N1&#45;&gt;NN1_0 -->
<g id="edge1" class="edge"><title>N1&#45;&gt;NN1_0</title>
<g id="a_edge1"><a xlink:title="34.52MB">
<path fill="none" stroke="black" d="M526.459,-546.868C521.552,-541.144 516.929,-535.127 513,-529 508.419,-521.854 504.686,-513.437 501.781,-505.567"/>
<polygon fill="black" stroke="black" points="505.072,-504.372 498.542,-496.029 498.443,-506.623 505.072,-504.372"/>
</a>
</g>
<g id="a_edge1&#45;label"><a xlink:title="34.52MB">
<text text-anchor="middle" x="541" y="-517.8" font-family="Times New Roman,serif" font-size="14.00"> 34.52MB</text>
</a>
</g>
</g>
<!-- NN1_1 -->
<g id="NN1_1" class="node"><title>NN1_1</title>
<g id="a_NN1_1"><a xlink:title="5.55MB">
<polygon fill="#f8f8f8" stroke="black" points="600,-496 550,-496 546,-492 546,-460 596,-460 600,-464 600,-496"/>
<polyline fill="none" stroke="black" points="596,-492 546,-492 "/>
<polyline fill="none" stroke="black" points="596,-492 596,-460 "/>
<polyline fill="none" stroke="black" points="596,-492 600,-496 "/>
<text text-anchor="middle" x="573" y="-476.1" font-family="Times New Roman,serif" font-size="8.00">5.55MB</text>
</a>
</g>
</g>
<!-- N1&#45;&gt;NN1_1 -->
<g id="edge2" class="edge"><title>N1&#45;&gt;NN1_1</title>
<g id="a_edge2"><a xlink:title="5.55MB">
<path fill="none" stroke="black" d="M573,-546.767C573,-533.251 573,-518.714 573,-506.582"/>
<polygon fill="black" stroke="black" points="576.5,-506.216 573,-496.216 569.5,-506.216 576.5,-506.216"/>
</a>
</g>
<g id="a_edge2&#45;label"><a xlink:title="5.55MB">
<text text-anchor="middle" x="597.5" y="-517.8" font-family="Times New Roman,serif" font-size="14.00"> 5.55MB</text>
</a>
</g>
</g>
<!-- N4 -->
<g id="node4" class="node"><title>N4</title>
<g id="a_node4"><a xlink:title="time.Time.String (38.50MB)">
<polygon fill="#ede1d9" stroke="#b25a1b" points="716.5,-409 557.5,-409 557.5,-311 716.5,-311 716.5,-409"/>
<text text-anchor="middle" x="637" y="-392.2" font-family="Times New Roman,serif" font-size="16.00">time</text>
<text text-anchor="middle" x="637" y="-374.2" font-family="Times New Roman,serif" font-size="16.00">Time</text>
<text text-anchor="middle" x="637" y="-356.2" font-family="Times New Roman,serif" font-size="16.00">String</text>
<text text-anchor="middle" x="637" y="-338.2" font-family="Times New Roman,serif" font-size="16.00">30.50MB (13.38%)</text>
<text text-anchor="middle" x="637" y="-320.2" font-family="Times New Roman,serif" font-size="16.00">of 38.50MB (16.89%)</text>
</a>
</g>
</g>
<!-- N1&#45;&gt;N4 -->
<g id="edge13" class="edge"><title>N1&#45;&gt;N4</title>
<g id="a_edge13"><a xlink:title="main.Recur &#45;&gt; time.Time.String (38.50MB)">
<path fill="none" stroke="#b25a1b" d="M613.498,-546.694C617.232,-541.044 620.532,-535.092 623,-529 637.041,-494.337 640.553,-452.421 640.549,-419.129"/>
<polygon fill="#b25a1b" stroke="#b25a1b" points="644.049,-419.054 640.443,-409.092 637.049,-419.128 644.049,-419.054"/>
</a>
</g>
<g id="a_edge13&#45;label"><a xlink:title="main.Recur &#45;&gt; time.Time.String (38.50MB)">
<text text-anchor="middle" x="667" y="-474.3" font-family="Times New Roman,serif" font-size="14.00"> 38.50MB</text>
</a>
</g>
</g>
<!-- N5 -->
<g id="node5" class="node"><title>N5</title>
<g id="a_node5"><a xlink:title="time.Sleep (24.01MB)">
<polygon fill="#ede6e0" stroke="#b28254" points="877,-391 735,-391 735,-329 877,-329 877,-391"/>
<text text-anchor="middle" x="806" y="-374.2" font-family="Times New Roman,serif" font-size="16.00">time</text>
<text text-anchor="middle" x="806" y="-356.2" font-family="Times New Roman,serif" font-size="16.00">Sleep</text>
<text text-anchor="middle" x="806" y="-338.2" font-family="Times New Roman,serif" font-size="16.00">24.01MB (10.53%)</text>
</a>
</g>
</g>
<!-- N1&#45;&gt;N5 -->
<g id="edge14" class="edge"><title>N1&#45;&gt;N5</title>
<g id="a_edge14"><a xlink:title="main.Recur &#45;&gt; time.Sleep (24.01MB)">
<path fill="none" stroke="#b28254" d="M637.43,-546.897C658.021,-531.85 680.303,-514.158 699,-496 729.622,-466.261 759.36,-427.717 779.681,-399.431"/>
<polygon fill="#b28254" stroke="#b28254" points="782.731,-401.181 785.675,-391.004 777.027,-397.124 782.731,-401.181"/>
</a>
</g>
<g id="a_edge14&#45;label"><a xlink:title="main.Recur &#45;&gt; time.Sleep (24.01MB)">
<text text-anchor="middle" x="760" y="-474.3" font-family="Times New Roman,serif" font-size="14.00"> 24.01MB</text>
</a>
</g>
</g>
<!-- N2 -->
<g id="node2" class="node"><title>N2</title>
<g id="a_node2"><a xlink:title="runtime.malg (122.54MB)">
<polygon fill="#edd9d5" stroke="#b21e00" points="1080,-173 864,-173 864,-87 1080,-87 1080,-173"/>
<text text-anchor="middle" x="972" y="-149.8" font-family="Times New Roman,serif" font-size="24.00">runtime</text>
<text text-anchor="middle" x="972" y="-123.8" font-family="Times New Roman,serif" font-size="24.00">malg</text>
<text text-anchor="middle" x="972" y="-97.8" font-family="Times New Roman,serif" font-size="24.00">122.54MB (53.76%)</text>
</a>
</g>
</g>
<!-- NN2_0 -->
<g id="NN2_0" class="node"><title>NN2_0</title>
<g id="a_NN2_0"><a xlink:title="122.54MB">
<polygon fill="#f8f8f8" stroke="black" points="999,-36 949,-36 945,-32 945,-0 995,-0 999,-4 999,-36"/>
<polyline fill="none" stroke="black" points="995,-32 945,-32 "/>
<polyline fill="none" stroke="black" points="995,-32 995,-0 "/>
<polyline fill="none" stroke="black" points="995,-32 999,-36 "/>
<text text-anchor="middle" x="972" y="-16.1" font-family="Times New Roman,serif" font-size="8.00">384B</text>
</a>
</g>
</g>
<!-- N2&#45;&gt;NN2_0 -->
<g id="edge3" class="edge"><title>N2&#45;&gt;NN2_0</title>
<g id="a_edge3"><a xlink:title="122.54MB">
<path fill="none" stroke="black" d="M972,-86.7857C972,-73.1962 972,-58.5043 972,-46.2838"/>
<polygon fill="black" stroke="black" points="975.5,-46.2706 972,-36.2707 968.5,-46.2707 975.5,-46.2706"/>
</a>
</g>
<g id="a_edge3&#45;label"><a xlink:title="122.54MB">
<text text-anchor="middle" x="1003.5" y="-57.8" font-family="Times New Roman,serif" font-size="14.00"> 122.54MB</text>
</a>
</g>
</g>
<!-- N3 -->
<g id="node3" class="node"><title>N3</title>
<g id="a_node3"><a xlink:title="runtime.mstart (125.39MB)">
<polygon fill="#edd9d5" stroke="#b21d00" points="1025,-609 919,-609 919,-573 1025,-573 1025,-609"/>
<text text-anchor="middle" x="972" y="-598.1" font-family="Times New Roman,serif" font-size="8.00">runtime</text>
<text text-anchor="middle" x="972" y="-589.1" font-family="Times New Roman,serif" font-size="8.00">mstart</text>
<text text-anchor="middle" x="972" y="-580.1" font-family="Times New Roman,serif" font-size="8.00">0 of 125.39MB (55.00%)</text>
</a>
</g>
</g>
<!-- N10 -->
<g id="node10" class="node"><title>N10</title>
<g id="a_node10"><a xlink:title="runtime.systemstack (125.39MB)">
<polygon fill="#edd9d5" stroke="#b21d00" points="1025,-496 919,-496 919,-460 1025,-460 1025,-496"/>
<text text-anchor="middle" x="972" y="-485.1" font-family="Times New Roman,serif" font-size="8.00">runtime</text>
<text text-anchor="middle" x="972" y="-476.1" font-family="Times New Roman,serif" font-size="8.00">systemstack</text>
<text text-anchor="middle" x="972" y="-467.1" font-family="Times New Roman,serif" font-size="8.00">0 of 125.39MB (55.00%)</text>
</a>
</g>
</g>
<!-- N3&#45;&gt;N10 -->
<g id="edge9" class="edge"><title>N3&#45;&gt;N10</title>
<g id="a_edge9"><a xlink:title="runtime.mstart &#45;&gt; runtime.systemstack (125.39MB)">
<path fill="none" stroke="#b21d00" stroke-width="3" d="M972,-572.656C972,-554.898 972,-527.04 972,-506.317"/>
<polygon fill="#b21d00" stroke="#b21d00" stroke-width="3" points="975.5,-506.222 972,-496.222 968.5,-506.222 975.5,-506.222"/>
</a>
</g>
<g id="a_edge9&#45;label"><a xlink:title="runtime.mstart &#45;&gt; runtime.systemstack (125.39MB)">
<text text-anchor="middle" x="1003.5" y="-517.8" font-family="Times New Roman,serif" font-size="14.00"> 125.39MB</text>
</a>
</g>
</g>
<!-- NN4_0 -->
<g id="NN4_0" class="node"><title>NN4_0</title>
<g id="a_NN4_0"><a xlink:title="30.50MB">
<polygon fill="#f8f8f8" stroke="black" points="664,-260 614,-260 610,-256 610,-224 660,-224 664,-228 664,-260"/>
<polyline fill="none" stroke="black" points="660,-256 610,-256 "/>
<polyline fill="none" stroke="black" points="660,-256 660,-224 "/>
<polyline fill="none" stroke="black" points="660,-256 664,-260 "/>
<text text-anchor="middle" x="637" y="-240.1" font-family="Times New Roman,serif" font-size="8.00">64B</text>
</a>
</g>
</g>
<!-- N4&#45;&gt;NN4_0 -->
<g id="edge4" class="edge"><title>N4&#45;&gt;NN4_0</title>
<g id="a_edge4"><a xlink:title="30.50MB">
<path fill="none" stroke="black" d="M637,-310.813C637,-296.992 637,-282.406 637,-270.317"/>
<polygon fill="black" stroke="black" points="640.5,-270.01 637,-260.01 633.5,-270.01 640.5,-270.01"/>
</a>
</g>
<g id="a_edge4&#45;label"><a xlink:title="30.50MB">
<text text-anchor="middle" x="665" y="-281.8" font-family="Times New Roman,serif" font-size="14.00"> 30.50MB</text>
</a>
</g>
</g>
<!-- N7 -->
<g id="node7" class="node"><title>N7</title>
<g id="a_node7"><a xlink:title="time.Time.Format (8MB)">
<polygon fill="#edebe8" stroke="#b2a793" points="752.5,-162 663.5,-162 663.5,-98 752.5,-98 752.5,-162"/>
<text text-anchor="middle" x="708" y="-147.6" font-family="Times New Roman,serif" font-size="13.00">time</text>
<text text-anchor="middle" x="708" y="-133.6" font-family="Times New Roman,serif" font-size="13.00">Time</text>
<text text-anchor="middle" x="708" y="-119.6" font-family="Times New Roman,serif" font-size="13.00">Format</text>
<text text-anchor="middle" x="708" y="-105.6" font-family="Times New Roman,serif" font-size="13.00">8MB (3.51%)</text>
</a>
</g>
</g>
<!-- N4&#45;&gt;N7 -->
<g id="edge15" class="edge"><title>N4&#45;&gt;N7</title>
<g id="a_edge15"><a xlink:title="time.Time.String &#45;&gt; time.Time.Format (8MB)">
<path fill="none" stroke="#b2a793" d="M684.199,-310.806C688.027,-305.115 691.41,-299.138 694,-293 710.241,-254.51 712.383,-206.386 711.3,-172.628"/>
<polygon fill="#b2a793" stroke="#b2a793" points="714.778,-172.042 710.849,-162.202 707.785,-172.344 714.778,-172.042"/>
</a>
</g>
<g id="a_edge15&#45;label"><a xlink:title="time.Time.String &#45;&gt; time.Time.Format (8MB)">
<text text-anchor="middle" x="726" y="-238.3" font-family="Times New Roman,serif" font-size="14.00"> 8MB</text>
</a>
</g>
</g>
<!-- NN5_0 -->
<g id="NN5_0" class="node"><title>NN5_0</title>
<g id="a_NN5_0"><a xlink:title="20.50MB">
<polygon fill="#f8f8f8" stroke="black" points="822,-260 772,-260 768,-256 768,-224 818,-224 822,-228 822,-260"/>
<polyline fill="none" stroke="black" points="818,-256 768,-256 "/>
<polyline fill="none" stroke="black" points="818,-256 818,-224 "/>
<polyline fill="none" stroke="black" points="818,-256 822,-260 "/>
<text text-anchor="middle" x="795" y="-240.1" font-family="Times New Roman,serif" font-size="8.00">64B</text>
</a>
</g>
</g>
<!-- N5&#45;&gt;NN5_0 -->
<g id="edge5" class="edge"><title>N5&#45;&gt;NN5_0</title>
<g id="a_edge5"><a xlink:title="20.50MB">
<path fill="none" stroke="black" d="M800.589,-328.87C798.798,-317.648 797.006,-304.778 796,-293 795.375,-285.677 795.054,-277.729 794.904,-270.371"/>
<polygon fill="black" stroke="black" points="798.401,-270.114 794.792,-260.153 791.402,-270.191 798.401,-270.114"/>
</a>
</g>
<g id="a_edge5&#45;label"><a xlink:title="20.50MB">
<text text-anchor="middle" x="824" y="-281.8" font-family="Times New Roman,serif" font-size="14.00"> 20.50MB</text>
</a>
</g>
</g>
<!-- NN5_1 -->
<g id="NN5_1" class="node"><title>NN5_1</title>
<g id="a_NN5_1"><a xlink:title="2.84MB">
<polygon fill="#f8f8f8" stroke="black" points="901,-260 851,-260 847,-256 847,-224 897,-224 901,-228 901,-260"/>
<polyline fill="none" stroke="black" points="897,-256 847,-256 "/>
<polyline fill="none" stroke="black" points="897,-256 897,-224 "/>
<polyline fill="none" stroke="black" points="897,-256 901,-260 "/>
<text text-anchor="middle" x="874" y="-240.1" font-family="Times New Roman,serif" font-size="8.00">384kB</text>
</a>
</g>
</g>
<!-- N5&#45;&gt;NN5_1 -->
<g id="edge6" class="edge"><title>N5&#45;&gt;NN5_1</title>
<g id="a_edge6"><a xlink:title="2.84MB">
<path fill="none" stroke="black" d="M828.809,-328.912C836.647,-317.913 845.162,-305.179 852,-293 856.179,-285.558 860.138,-277.168 863.516,-269.418"/>
<polygon fill="black" stroke="black" points="866.801,-270.636 867.457,-260.061 860.35,-267.919 866.801,-270.636"/>
</a>
</g>
<g id="a_edge6&#45;label"><a xlink:title="2.84MB">
<text text-anchor="middle" x="884.5" y="-281.8" font-family="Times New Roman,serif" font-size="14.00"> 2.84MB</text>
</a>
</g>
</g>
<!-- N6 -->
<g id="node6" class="node"><title>N6</title>
<g id="a_node6"><a xlink:title="runtime.newproc1 (125.39MB)">
<polygon fill="#edd9d5" stroke="#b21d00" points="1025,-260 919,-260 919,-224 1025,-224 1025,-260"/>
<text text-anchor="middle" x="972" y="-249.1" font-family="Times New Roman,serif" font-size="8.00">runtime</text>
<text text-anchor="middle" x="972" y="-240.1" font-family="Times New Roman,serif" font-size="8.00">newproc1</text>
<text text-anchor="middle" x="972" y="-231.1" font-family="Times New Roman,serif" font-size="8.00">0 of 125.39MB (55.00%)</text>
</a>
</g>
</g>
<!-- N6&#45;&gt;N2 -->
<g id="edge12" class="edge"><title>N6&#45;&gt;N2</title>
<g id="a_edge12"><a xlink:title="runtime.newproc1 &#45;&gt; runtime.malg (122.54MB)">
<path fill="none" stroke="#b21e00" stroke-width="3" d="M972,-223.813C972,-212.815 972,-197.909 972,-183.262"/>
<polygon fill="#b21e00" stroke="#b21e00" stroke-width="3" points="975.5,-183.214 972,-173.214 968.5,-183.214 975.5,-183.214"/>
</a>
</g>
<g id="a_edge12&#45;label"><a xlink:title="runtime.newproc1 &#45;&gt; runtime.malg (122.54MB)">
<text text-anchor="middle" x="1003.5" y="-194.8" font-family="Times New Roman,serif" font-size="14.00"> 122.54MB</text>
</a>
</g>
</g>
<!-- N8 -->
<g id="node8" class="node"><title>N8</title>
<g id="a_node8"><a xlink:title="runtime.allgadd (2.85MB)">
<polygon fill="#edeceb" stroke="#b2afa7" points="1190,-152 1098,-152 1098,-108 1190,-108 1190,-152"/>
<text text-anchor="middle" x="1144" y="-139.2" font-family="Times New Roman,serif" font-size="11.00">runtime</text>
<text text-anchor="middle" x="1144" y="-127.2" font-family="Times New Roman,serif" font-size="11.00">allgadd</text>
<text text-anchor="middle" x="1144" y="-115.2" font-family="Times New Roman,serif" font-size="11.00">2.85MB (1.25%)</text>
</a>
</g>
</g>
<!-- N6&#45;&gt;N8 -->
<g id="edge16" class="edge"><title>N6&#45;&gt;N8</title>
<g id="a_edge16"><a xlink:title="runtime.newproc1 &#45;&gt; runtime.allgadd (2.85MB)">
<path fill="none" stroke="#b2afa7" d="M1006.45,-223.857C1017.02,-218.372 1028.6,-212.128 1039,-206 1061.94,-192.485 1067.3,-188.422 1089,-173 1095.54,-168.352 1102.41,-163.27 1109,-158.297"/>
<polygon fill="#b2afa7" stroke="#b2afa7" points="1111.31,-160.94 1117.14,-152.097 1107.06,-155.371 1111.31,-160.94"/>
</a>
</g>
<g id="a_edge16&#45;label"><a xlink:title="runtime.newproc1 &#45;&gt; runtime.allgadd (2.85MB)">
<text text-anchor="middle" x="1086.5" y="-194.8" font-family="Times New Roman,serif" font-size="14.00"> 2.85MB</text>
</a>
</g>
</g>
<!-- NN7_0 -->
<g id="NN7_0" class="node"><title>NN7_0</title>
<g id="a_NN7_0"><a xlink:title="8MB">
<polygon fill="#f8f8f8" stroke="black" points="735,-36 685,-36 681,-32 681,-0 731,-0 735,-4 735,-36"/>
<polyline fill="none" stroke="black" points="731,-32 681,-32 "/>
<polyline fill="none" stroke="black" points="731,-32 731,-0 "/>
<polyline fill="none" stroke="black" points="731,-32 735,-36 "/>
<text text-anchor="middle" x="708" y="-16.1" font-family="Times New Roman,serif" font-size="8.00">96B</text>
</a>
</g>
</g>
<!-- N7&#45;&gt;NN7_0 -->
<g id="edge7" class="edge"><title>N7&#45;&gt;NN7_0</title>
<g id="a_edge7"><a xlink:title="8MB">
<path fill="none" stroke="black" d="M708,-97.7726C708,-81.5678 708,-61.9537 708,-46.3514"/>
<polygon fill="black" stroke="black" points="711.5,-46.282 708,-36.282 704.5,-46.282 711.5,-46.282"/>
</a>
</g>
<g id="a_edge7&#45;label"><a xlink:title="8MB">
<text text-anchor="middle" x="724" y="-57.8" font-family="Times New Roman,serif" font-size="14.00"> 8MB</text>
</a>
</g>
</g>
<!-- NN8_0 -->
<g id="NN8_0" class="node"><title>NN8_0</title>
<g id="a_NN8_0"><a xlink:title="2.85MB">
<polygon fill="#f8f8f8" stroke="black" points="1171,-36 1121,-36 1117,-32 1117,-0 1167,-0 1171,-4 1171,-36"/>
<polyline fill="none" stroke="black" points="1167,-32 1117,-32 "/>
<polyline fill="none" stroke="black" points="1167,-32 1167,-0 "/>
<polyline fill="none" stroke="black" points="1167,-32 1171,-36 "/>
<text text-anchor="middle" x="1144" y="-16.1" font-family="Times New Roman,serif" font-size="8.00">2.84MB</text>
</a>
</g>
</g>
<!-- N8&#45;&gt;NN8_0 -->
<g id="edge8" class="edge"><title>N8&#45;&gt;NN8_0</title>
<g id="a_edge8"><a xlink:title="2.85MB">
<path fill="none" stroke="black" d="M1144,-107.791C1144,-90.2785 1144,-65.3037 1144,-46.2998"/>
<polygon fill="black" stroke="black" points="1147.5,-46.1724 1144,-36.1724 1140.5,-46.1724 1147.5,-46.1724"/>
</a>
</g>
<g id="a_edge8&#45;label"><a xlink:title="2.85MB">
<text text-anchor="middle" x="1168.5" y="-57.8" font-family="Times New Roman,serif" font-size="14.00"> 2.85MB</text>
</a>
</g>
</g>
<!-- N9 -->
<g id="node9" class="node"><title>N9</title>
<g id="a_node9"><a xlink:title="runtime.newproc.func1 (125.39MB)">
<polygon fill="#edd9d5" stroke="#b21d00" points="1025,-382 919,-382 919,-338 1025,-338 1025,-382"/>
<text text-anchor="middle" x="972" y="-371.6" font-family="Times New Roman,serif" font-size="8.00">runtime</text>
<text text-anchor="middle" x="972" y="-362.6" font-family="Times New Roman,serif" font-size="8.00">newproc</text>
<text text-anchor="middle" x="972" y="-353.6" font-family="Times New Roman,serif" font-size="8.00">func1</text>
<text text-anchor="middle" x="972" y="-344.6" font-family="Times New Roman,serif" font-size="8.00">0 of 125.39MB (55.00%)</text>
</a>
</g>
</g>
<!-- N9&#45;&gt;N6 -->
<g id="edge10" class="edge"><title>N9&#45;&gt;N6</title>
<g id="a_edge10"><a xlink:title="runtime.newproc.func1 &#45;&gt; runtime.newproc1 (125.39MB)">
<path fill="none" stroke="#b21d00" stroke-width="3" d="M972,-337.993C972,-318.979 972,-290.861 972,-270.147"/>
<polygon fill="#b21d00" stroke="#b21d00" stroke-width="3" points="975.5,-270.078 972,-260.078 968.5,-270.078 975.5,-270.078"/>
</a>
</g>
<g id="a_edge10&#45;label"><a xlink:title="runtime.newproc.func1 &#45;&gt; runtime.newproc1 (125.39MB)">
<text text-anchor="middle" x="1003.5" y="-281.8" font-family="Times New Roman,serif" font-size="14.00"> 125.39MB</text>
</a>
</g>
</g>
<!-- N10&#45;&gt;N9 -->
<g id="edge11" class="edge"><title>N10&#45;&gt;N9</title>
<g id="a_edge11"><a xlink:title="runtime.systemstack &#45;&gt; runtime.newproc.func1 (125.39MB)">
<path fill="none" stroke="#b21d00" stroke-width="3" d="M972,-459.884C972,-442.119 972,-413.944 972,-392.205"/>
<polygon fill="#b21d00" stroke="#b21d00" stroke-width="3" points="975.5,-392.124 972,-382.124 968.5,-392.125 975.5,-392.124"/>
</a>
</g>
<g id="a_edge11&#45;label"><a xlink:title="runtime.systemstack &#45;&gt; runtime.newproc.func1 (125.39MB)">
<text text-anchor="middle" x="1003.5" y="-430.8" font-family="Times New Roman,serif" font-size="14.00"> 125.39MB</text>
</a>
</g>
</g>
</g>
</g></svg>
